<svg width="30" height="30" viewBox="0 0 30 30" fill="none" xmlns="http://www.w3.org/2000/svg">
<g clip-path="url(#clip0)">
<path d="M28.3137 12.6475L28.3605 12.6577H8.28586L14.5966 6.33309C14.9056 6.02431 15.0751 5.60602 15.0751 5.16699C15.0751 4.72797 14.9056 4.3126 14.5966 4.00309L13.6146 3.02065C13.3059 2.71187 12.8944 2.54114 12.4556 2.54114C12.0166 2.54114 11.6049 2.71065 11.2961 3.01943L0.478299 13.8363C0.168299 14.1463 -0.00121298 14.5592 6.53448e-06 14.9985C-0.00121298 15.4402 0.168299 15.8533 0.478299 16.1628L11.2961 26.9806C11.6049 27.2892 12.0163 27.4589 12.4556 27.4589C12.8944 27.4589 13.3059 27.2889 13.6146 26.9806L14.5966 25.9982C14.9056 25.6899 15.0751 25.2782 15.0751 24.8392C15.0751 24.4004 14.9056 24.0104 14.5966 23.7019L8.21464 17.3419H28.3361C29.2403 17.3419 30 16.5626 30 15.6589V14.2694C30 13.3658 29.2178 12.6475 28.3137 12.6475Z" fill="#888888"/>
</g>
<defs>
<clipPath id="clip0">
<rect width="30" height="30" fill="white"/>
</clipPath>
</defs>
</svg>
