<svg width="22" height="22" viewBox="0 0 22 22" fill="none" xmlns="http://www.w3.org/2000/svg">
<path d="M18.2461 13.8762C17.462 13.1021 16.4832 13.1021 15.7041 13.8762C15.1098 14.4655 14.5155 15.0549 13.9312 15.6542C13.7713 15.819 13.6365 15.8539 13.4417 15.744C13.0572 15.5343 12.6477 15.3645 12.2781 15.1348C10.5551 14.051 9.11178 12.6577 7.83328 11.0895C7.19902 10.3104 6.63467 9.47637 6.24013 8.53747C6.16023 8.34769 6.17521 8.22283 6.33003 8.06802C6.92434 7.49369 7.50366 6.90437 8.08798 6.31506C8.90203 5.49602 8.90203 4.53714 8.08298 3.7131C7.61853 3.24365 7.15407 2.78419 6.68961 2.31473C6.21017 1.83529 5.73572 1.35086 5.25129 0.876413C4.4672 0.112305 3.48834 0.112305 2.70925 0.881407C2.10995 1.47072 1.53562 2.07501 0.926333 2.65434C0.361991 3.18871 0.0773229 3.84295 0.0173928 4.60706C-0.0774965 5.8506 0.227148 7.02423 0.656647 8.1679C1.53562 10.5351 2.87406 12.6377 4.49717 14.5654C6.68961 17.1724 9.30656 19.235 12.368 20.7232C13.7464 21.3925 15.1747 21.9069 16.7279 21.9918C17.7967 22.0517 18.7256 21.782 19.4697 20.948C19.9791 20.3786 20.5534 19.8592 21.0928 19.3149C21.8919 18.5058 21.8969 17.527 21.1028 16.7279C20.1539 15.774 19.2 14.8251 18.2461 13.8762Z" fill="#FF3754"/>
</svg>
